<?xml version="1.0" encoding="UTF-8" standalone="no"?>
<!-- Created with Inkscape (http://www.inkscape.org/) -->

<svg
   xmlns:dc="http://purl.org/dc/elements/1.1/"
   xmlns:cc="http://creativecommons.org/ns#"
   xmlns:rdf="http://www.w3.org/1999/02/22-rdf-syntax-ns#"
   xmlns:svg="http://www.w3.org/2000/svg"
   xmlns="http://www.w3.org/2000/svg"
   xmlns:sodipodi="http://sodipodi.sourceforge.net/DTD/sodipodi-0.dtd"
   xmlns:inkscape="http://www.inkscape.org/namespaces/inkscape"
   width="210mm"
   height="297mm"
   viewBox="0 0 744.09449 1052.3622"
   id="svg2"
   version="1.1"
   inkscape:version="0.91 r13725"
   sodipodi:docname="flap_MAKERS_EH_INUTIL.svg">
  <defs
     id="defs4">
    <clipPath
       id="clipPath4152"
       clipPathUnits="userSpaceOnUse">
      <path
         inkscape:connector-curvature="0"
         id="path4154"
         d="m 0,0 3078,0 0,6978 L 0,6978 0,0" />
    </clipPath>
    <clipPath
       id="clipPath4211"
       clipPathUnits="userSpaceOnUse">
      <path
         inkscape:connector-curvature="0"
         id="path4213"
         d="m 0,0 3078,0 0,6978 L 0,6978 0,0" />
    </clipPath>
    <clipPath
       id="clipPath4262"
       clipPathUnits="userSpaceOnUse">
      <path
         inkscape:connector-curvature="0"
         id="path4264"
         d="m 0,0 3078,0 0,6978 L 0,6978 0,0" />
    </clipPath>
  </defs>
  <sodipodi:namedview
     id="base"
     pagecolor="#ffffff"
     bordercolor="#666666"
     borderopacity="1.0"
     inkscape:pageopacity="0.0"
     inkscape:pageshadow="2"
     inkscape:zoom="0.35"
     inkscape:cx="1525.2604"
     inkscape:cy="951.12705"
     inkscape:document-units="cm"
     inkscape:current-layer="layer1"
     showgrid="false"
     units="mm"
     inkscape:snap-bbox="true"
     inkscape:bbox-nodes="true"
     inkscape:bbox-paths="true"
     inkscape:snap-bbox-edge-midpoints="true"
     inkscape:snap-bbox-midpoints="true"
     inkscape:object-paths="true"
     inkscape:snap-intersection-paths="true"
     inkscape:object-nodes="true"
     inkscape:snap-smooth-nodes="true"
     inkscape:snap-midpoints="true"
     inkscape:snap-object-midpoints="true"
     inkscape:snap-center="true"
     inkscape:window-width="1920"
     inkscape:window-height="1017"
     inkscape:window-x="-8"
     inkscape:window-y="-8"
     inkscape:window-maximized="1" />
  <metadata
     id="metadata7">
    <rdf:RDF>
      <cc:Work
         rdf:about="">
        <dc:format>image/svg+xml</dc:format>
        <dc:type
           rdf:resource="http://purl.org/dc/dcmitype/StillImage" />
        <dc:title></dc:title>
      </cc:Work>
    </rdf:RDF>
  </metadata>
  <g
     inkscape:label="Camada 1"
     inkscape:groupmode="layer"
     id="layer1">
    <ellipse
       style="opacity:1;fill:none;fill-opacity:1;fill-rule:nonzero;stroke:#000000;stroke-width:1;stroke-miterlimit:4;stroke-dasharray:none;stroke-dashoffset:0;stroke-opacity:1"
       id="path4191"
       cx="-441.42856"
       cy="180.21935"
       rx="10"
       ry="7.8571429" />
    <path
       inkscape:connector-curvature="0"
       id="path4156"
       style="fill:none;stroke:#000000;stroke-width:6.07919884;stroke-linecap:round;stroke-linejoin:round;stroke-miterlimit:10;stroke-dasharray:none;stroke-opacity:1"
       d="m 46.034454,138.10594 10.131992,89.16158 14.184794,128.67636 13.171594,118.54438 13.171609,109.42558 12.158397,98.28038 11.14519,87.13518 9.1188,74.97677 9.1188,61.80519 6.0792,49.64678 5.066,34.4488 3.03959,21.27716 1.0132,7.0924 9.11881,0 1.0132,-7.0924 3.03958,-21.27716 4.05281,-34.4488 7.0924,-49.64678 8.10559,-61.80519 10.13201,-74.97677 11.14519,-87.13518 12.15839,-98.28038 12.15841,-109.42558 14.1848,-118.54438 14.18479,-128.67636 9.11879,-89.16158" />
    <path
       inkscape:connector-curvature="0"
       id="path4158"
       style="fill:none;stroke:#000000;stroke-width:6.07919884;stroke-linecap:round;stroke-linejoin:round;stroke-miterlimit:10;stroke-dasharray:none;stroke-opacity:1"
       d="M 266.52405,160.61894 C 275.90566,116.3874 257.50636,70.887938 220.01665,45.610427 182.52685,20.332816 133.44796,20.335348 95.960682,45.620549 58.473193,70.901809 40.07845,116.40309 49.464232,160.63361" />
    <path
       inkscape:connector-curvature="0"
       id="path4160"
       style="fill:none;stroke:#000000;stroke-width:6.07919884;stroke-linecap:round;stroke-linejoin:round;stroke-miterlimit:10;stroke-dasharray:none;stroke-opacity:1"
       d="m 200.04081,137.59934 c 0,-23.22244 -18.82546,-42.047791 -42.04778,-42.047791 -23.22234,0 -42.04779,18.825351 -42.04779,42.047791 0,23.22244 18.82545,42.04779 42.04779,42.04779 23.22232,0 42.04778,-18.82535 42.04778,-42.04779" />
    <path
       style="fill:none;fill-rule:evenodd;stroke:#000000;stroke-width:1px;stroke-linecap:butt;stroke-linejoin:miter;stroke-opacity:1"
       d="m 156.98618,23.618665 0,997.841335"
       id="path4232"
       inkscape:connector-curvature="0" />
    <path
       inkscape:connector-curvature="0"
       id="path4266"
       style="fill:none;stroke:#000000;stroke-width:7.642416;stroke-linecap:round;stroke-linejoin:round;stroke-miterlimit:10;stroke-dasharray:none;stroke-opacity:1"
       d="m 594.58647,929.64414 7.62056,-68.97898 13.97103,-143.06753 13.97104,-148.17707 12.70094,-153.28664 12.70094,-155.8414 11.43084,-157.1188 10.16075,-158.396189 7.62057,-157.118801 6.35046,-155.84141 3.81029,-153.28663 1.27009,-148.17708 0,-143.06752 -3.81028,-135.40319 -7.62056,-127.7389 -8.89066,-120.0745 -12.70094,-108.578 -15.24113,-99.6363 -17.78131,-86.8625 -20.3215,-75.3659 -21.5916,-62.592 -22.86169,-48.5408 -25.40188,-34.4895 -26.67197,-21.7156 -26.67197,-7.6643 -27.94207,7.6643 -26.67197,21.7156 -24.13178,34.4895 -24.13179,48.5408 -21.5916,62.592 -20.3215,75.3659 -17.78131,86.8625 -13.97104,99.6363 -12.70093,108.578 -10.16076,120.0745 -6.35046,127.7389 -3.81029,135.40319 -1.27009,143.06752 1.27009,148.17708 3.81029,153.28663 6.35046,155.84141 8.89066,157.118801 8.89066,158.396189 11.43084,157.1188 12.70094,155.8414 13.97104,153.28664 12.70094,148.17707 15.24112,143.06753 6.35047,68.97898" />
    <path
       inkscape:connector-curvature="0"
       id="path4268"
       style="fill:none;stroke:#000000;stroke-width:7.642416;stroke-linecap:round;stroke-linejoin:round;stroke-miterlimit:10;stroke-dasharray:none;stroke-opacity:1"
       d="m 376.13032,906.01245 c 0,61.72968 49.75605,111.77155 111.13321,111.77155 61.37729,0 111.13322,-50.04187 111.13322,-111.77155" />
    <path
       inkscape:connector-curvature="0"
       id="path4270"
       style="fill:none;stroke:#000000;stroke-width:7.642416;stroke-linecap:round;stroke-linejoin:round;stroke-miterlimit:10;stroke-dasharray:none;stroke-opacity:1"
       d="m 529.81168,906.01245 c 0,-23.6336 -19.04938,-42.79252 -42.54815,-42.79252 -23.49877,0 -42.54814,19.15892 -42.54814,42.79252 0,23.63361 19.04937,42.79252 42.54814,42.79252 23.49877,0 42.54815,-19.15891 42.54815,-42.79252" />
    <path
       style="fill:none;fill-rule:evenodd;stroke:#000000;stroke-width:1px;stroke-linecap:butt;stroke-linejoin:miter;stroke-opacity:1"
       d="m 487.38565,-1746.0886 0,2769.5858"
       id="path4281"
       inkscape:connector-curvature="0" />
  </g>
</svg>
